<svg class="w-13 mr-3 sm:hidden" version="1.1" id="Layer_1" xmlns="http://www.w3.org/2000/svg" x="0px" y="0px" viewBox="0 196.149 1308 916.718" enable-background="new 0 0 1308 1308"><path fill="currentColor" opacity="1.000000" stroke="none" d=" M1309.000000,615.000000 C1309.000000,641.354248 1309.000000,667.708435 1308.597046,694.304260 C1307.752319,696.209351 1306.983154,697.860840 1306.921387,699.538330 C1306.489136,711.282410 1306.287354,723.035034 1305.849976,734.778931 C1305.260498,750.610168 1304.500488,766.434937 1303.863770,782.264587 C1303.511963,791.010010 1303.321411,799.762024 1302.944580,808.506165 C1302.725464,813.591125 1302.405029,818.678345 1301.914551,823.743713 C1300.623657,837.073181 1299.166382,850.386536 1297.871094,863.715698 C1297.128296,871.358459 1296.919312,879.067810 1295.858521,886.661865 C1293.753174,901.735168 1291.269531,916.756592 1288.859131,931.786194 C1285.953979,949.900269 1282.663818,967.881775 1276.012573,985.149109 C1268.713013,1004.098755 1258.572876,1021.262573 1245.042480,1036.293213 C1236.275879,1046.031738 1226.374390,1054.599243 1215.423462,1061.976929 C1200.618042,1071.951416 1185.007935,1080.214844 1167.503906,1083.955322 C1151.108765,1087.458618 1134.526611,1090.136108 1117.966187,1092.799805 C1107.215088,1094.529175 1096.372314,1095.745361 1085.539185,1096.894653 C1074.154053,1098.102539 1062.741089,1099.086060 1051.322876,1099.933228 C1036.089478,1101.063110 1020.842590,1102.018188 1005.595642,1102.951782 C993.273071,1103.706421 980.945496,1104.397461 968.613403,1104.973633 C952.621521,1105.720703 936.623840,1106.345459 920.627075,1106.984497 C911.214294,1107.360474 901.799377,1107.689575 892.383789,1107.989380 C880.969604,1108.353149 869.554138,1108.682007 858.138367,1108.991943 C845.056763,1109.347168 831.975220,1109.709961 818.891846,1109.988403 C801.144165,1110.366089 783.393799,1110.998779 765.646362,1110.942871 C688.736145,1110.700562 611.826294,1110.291870 534.916931,1109.837158 C517.667297,1109.735229 500.419525,1109.233887 483.172089,1108.861328 C469.922791,1108.575195 456.674683,1108.226685 443.427307,1107.861084 C432.677856,1107.564331 421.929626,1107.220825 411.182098,1106.861084 C402.099487,1106.557007 393.017456,1106.229858 383.937347,1105.859497 C368.108612,1105.213745 352.278992,1104.581055 336.454590,1103.840088 C324.122253,1103.262573 311.793457,1102.591919 299.469910,1101.849365 C283.893097,1100.910645 268.322815,1099.862793 252.750427,1098.851074 C243.092804,1098.223633 233.434952,1097.598267 223.780228,1096.928223 C219.862122,1096.656250 215.931625,1096.421509 212.042252,1095.903320 C199.979263,1094.296021 187.907944,1092.721680 175.888580,1090.825806 C165.855011,1089.242920 155.802612,1087.602539 145.915588,1085.310425 C131.742126,1082.024658 118.360260,1076.445679 105.745964,1069.212036 C87.579605,1058.794678 71.648209,1045.824707 58.595295,1029.185425 C47.329170,1014.823914 38.422840,999.249878 32.228783,982.233154 C26.046343,965.248474 22.815088,947.465637 20.115999,929.613525 C17.791656,914.239990 15.090698,898.915710 13.137616,883.495972 C11.373878,869.571106 10.319008,855.553345 9.096772,841.563904 C7.969903,828.666016 6.916103,815.759338 6.051853,802.841614 C5.227778,790.524414 4.490406,778.194702 4.077142,765.858337 C3.566593,750.617859 3.434000,735.364807 3.123619,720.117432 C3.100137,718.963867 3.109981,717.769287 2.793870,716.684265 C2.685844,716.313416 1.625333,716.220093 1.000004,716.000000 C1.000000,675.979126 1.000000,635.958191 1.402918,595.695801 C2.246731,593.955627 3.013460,592.471008 3.078701,590.956238 C3.824924,573.630432 4.388169,556.296631 5.158430,538.971985 C5.692002,526.970947 6.413441,514.977295 7.160312,502.987091 C7.731197,493.822174 8.394805,484.661438 9.159699,475.510742 C10.072019,464.596283 11.000340,453.679962 12.168726,442.790924 C13.696358,428.553802 15.139345,414.294708 17.219355,400.133270 C19.494701,384.641937 22.212961,369.204559 25.175461,353.827942 C29.293442,332.453827 37.043461,312.506165 48.987484,294.155945 C58.121586,280.122803 68.740555,267.391968 81.762848,257.005310 C92.798470,248.203232 104.739220,240.690582 117.701393,234.638077 C135.775070,226.198822 154.938614,222.383728 174.302826,219.143417 C183.278366,217.641510 192.420074,217.151321 201.473267,216.090073 C212.465057,214.801605 223.422104,213.184006 234.432327,212.094208 C246.981674,210.852051 259.567352,209.954590 272.147919,209.057159 C282.969879,208.285187 293.804962,207.689377 304.637787,207.078522 C317.297668,206.364639 329.958435,205.655640 342.624268,205.059662 C358.283478,204.322845 373.947632,203.689346 389.610870,203.040573 C398.690521,202.664490 407.771362,202.310608 416.853790,202.010788 C428.100800,201.639496 439.349487,201.315506 450.598419,201.006088 C463.512726,200.650864 476.427002,200.281555 489.343292,200.012985 C507.757141,199.630096 526.173828,199.000458 544.587524,199.057693 C621.662781,199.297241 698.737549,199.710251 775.811951,200.164902 C792.727905,200.264694 809.642029,200.766342 826.555847,201.137283 C839.638428,201.424194 852.719788,201.774521 865.800537,202.136581 C876.715942,202.438736 887.630127,202.783569 898.544006,203.137985 C908.125732,203.449127 917.708069,203.756073 927.286926,204.142899 C942.949707,204.775421 958.612183,205.420792 974.270325,206.156464 C986.767883,206.743637 999.263733,207.391083 1011.751160,208.161224 C1026.497070,209.070679 1041.238770,210.064362 1055.971436,211.165680 C1067.718262,212.043793 1079.468384,212.953461 1091.181763,214.184341 C1105.082642,215.645096 1118.960205,217.355469 1132.821777,219.156921 C1150.098389,221.402130 1167.124756,224.622498 1183.488892,231.009750 C1201.756470,238.140060 1218.092041,248.383850 1232.581909,261.352692 C1240.003784,267.995544 1246.410767,275.860992 1252.757202,283.599640 C1267.975708,302.156281 1277.557373,323.618256 1282.798828,346.838531 C1286.560791,363.504089 1289.118530,380.456085 1291.807373,397.344910 C1294.155273,412.092926 1296.108032,426.910278 1297.909058,441.736633 C1299.208496,452.434814 1300.109985,463.187378 1300.941650,473.934814 C1302.068604,488.499512 1303.029419,503.078094 1303.929199,517.658936 C1304.710205,530.314087 1305.533447,542.973572 1305.929565,555.643921 C1306.447876,572.216675 1306.568237,588.802063 1306.849243,605.382141 C1306.891602,607.881409 1306.714355,610.399658 1306.986206,612.870789 C1307.071533,613.645081 1308.296631,614.293823 1309.000000,615.000000 M806.972046,560.403870 C808.184937,556.918823 809.371277,553.424255 810.615723,549.950500 C814.486145,539.146484 819.346619,528.584045 822.023499,517.493469 C825.557678,502.850952 824.205261,488.780029 812.228699,477.317871 C805.401001,470.783386 790.395386,468.537964 783.209412,474.294983 C779.002197,477.665649 774.751709,481.211609 771.417908,485.393890 C765.066162,493.362366 758.925354,501.571045 753.497070,510.184296 C747.513306,519.679016 742.347168,529.696045 736.976196,539.567932 C731.955383,548.796204 727.148193,558.140442 722.215637,567.417053 C720.255432,571.103638 717.984131,574.641724 716.250854,578.428772 C712.245117,587.180481 708.906555,596.261780 704.510925,604.804749 C699.141174,615.240601 692.850159,625.198608 687.208740,635.500793 C685.430908,638.747314 683.692444,641.301208 679.752563,639.174988 C676.115417,637.212158 676.415283,633.925293 677.849915,630.684753 C681.192688,623.133789 684.843079,615.711060 687.953674,608.067505 C690.727905,601.250305 693.057434,594.243469 695.366455,587.248779 C696.797424,582.914062 697.554504,578.349609 699.088196,574.057739 C702.236816,565.247070 705.495300,556.462646 709.113281,547.837219 C711.547485,542.034241 714.759033,536.562012 717.467651,530.867981 C719.760437,526.048401 721.936035,521.166382 723.972046,516.232971 C726.354553,510.459961 728.444641,504.566284 730.821350,498.790710 C732.746460,494.112640 735.651306,489.708344 736.800049,484.868896 C738.793030,476.473206 739.223267,468.039825 737.204712,459.246674 C733.481689,443.028534 720.880310,432.825012 704.574341,435.048462 C698.998596,435.808807 692.787109,436.694885 688.329102,439.696381 C682.258972,443.783173 676.985291,449.484161 672.460083,455.335876 C665.181396,464.748108 658.546692,474.690399 652.098572,484.704071 C645.403320,495.101501 639.156677,505.793396 632.903137,516.467468 C629.596497,522.111572 626.631287,527.960022 623.628601,533.776489 C621.641418,537.625854 620.067017,541.697754 617.948303,545.467957 C612.488647,555.182922 606.751404,564.741638 601.272522,574.445984 C596.442078,583.001953 591.890930,591.715393 587.070618,600.277222 C581.401123,610.347412 575.647766,620.372681 569.747864,630.308838 C568.694763,632.082336 566.951050,634.269836 565.183777,634.642517 C559.615295,635.816772 553.889893,636.682983 548.213379,636.756897 C544.392761,636.806702 538.264832,628.494385 538.094788,625.050598 C537.621582,615.463562 536.865723,605.890198 536.194580,596.313293 C535.861572,591.561523 534.652466,586.702881 535.279846,582.088318 C536.472290,573.317444 539.049194,564.741821 540.412659,555.985657 C542.265320,544.087402 543.701233,532.115356 544.982666,520.139404 C546.520813,505.763763 547.726501,491.352234 549.033020,476.952393 C549.302795,473.979858 549.420227,470.991669 549.544312,468.008087 C549.929810,458.744019 550.798767,449.462036 550.499634,440.218750 C550.228577,431.841553 548.449829,423.801636 543.400024,416.434845 C536.402039,406.226013 528.619324,399.261353 515.044067,399.635376 C504.422150,399.928040 496.741425,405.577972 490.278229,411.903015 C484.973907,417.093903 481.919312,425.159271 479.398376,432.477814 C476.000275,442.342957 473.989777,452.694489 471.537567,462.874329 C469.661926,470.660767 467.708160,478.450378 466.355865,486.335724 C464.345306,498.059235 462.796997,509.863190 461.128326,521.643738 C460.324768,527.316650 459.755951,533.022583 458.974976,538.698975 C457.337158,550.603638 455.808533,562.527588 453.892334,574.388245 C452.406494,583.584839 450.241455,592.670044 448.665100,601.854004 C446.578003,614.013489 444.826080,626.230164 442.826691,638.405273 C440.942108,649.881287 438.891388,661.329895 436.973175,672.800537 C435.324982,682.656860 433.689453,692.516296 432.177856,702.394226 C430.381348,714.134277 427.808136,725.853210 427.263153,737.659363 C426.720581,749.413879 427.939209,761.296204 429.029785,773.062744 C429.724701,780.560852 431.160004,788.063660 433.072052,795.352173 C434.574005,801.077515 437.087555,806.580994 439.550293,812.001953 C445.341217,824.748840 459.492493,830.558167 465.631104,843.073364 C465.765533,843.347473 466.100464,843.535095 466.365234,843.731506 C471.288513,847.384583 476.488495,850.724548 481.060211,854.773926 C485.173309,858.416870 488.513763,862.918274 492.348419,866.893005 C496.834076,871.542358 501.105469,876.519104 506.163544,880.464417 C512.280579,885.235657 519.205811,888.955872 525.637268,893.342041 C538.827698,902.337952 552.787170,909.526001 568.876404,911.412903 C574.830688,912.111145 580.901001,912.241638 586.896729,912.026794 C591.419678,911.864868 596.011963,911.126709 600.386292,909.949707 C606.110535,908.409424 612.008484,906.854431 617.182861,904.090881 C624.337402,900.269958 630.789612,895.156494 637.740173,890.920898 C640.884216,889.004944 644.769104,888.282654 647.856873,886.300598 C655.798096,881.203064 663.662537,875.946472 671.222107,870.303894 C680.334595,863.502136 689.187622,856.342102 697.982605,849.129456 C702.735107,845.231934 707.237549,841.010193 711.663208,836.738342 C717.147217,831.444702 722.840210,826.287292 727.718201,820.463928 C736.407166,810.091003 744.455505,799.184143 752.969360,788.660522 C756.647522,784.114136 760.897034,780.034912 764.744385,775.619324 C770.138916,769.427979 775.303589,763.035095 780.743103,756.884583 C787.630310,749.097107 794.563904,741.342285 801.721924,733.805481 C808.020264,727.173706 814.478760,720.670349 821.198059,714.469604 C826.421875,709.648987 832.168945,705.397156 837.660767,700.864990 C848.985535,691.519287 860.347900,682.218079 871.589905,672.773682 C877.650208,667.682373 883.520081,662.362488 889.426392,657.090332 C893.617737,653.349060 897.782410,649.574280 901.857788,645.707642 C906.639648,641.170715 911.463135,636.661682 915.996155,631.882202 C922.942871,624.557678 927.407776,615.844788 930.574280,606.228333 C933.205688,598.236816 934.094727,590.511658 930.313232,582.878235 C929.049683,580.327637 926.933105,577.596863 924.490295,576.336365 C913.172546,570.495789 902.840332,575.302063 893.169861,580.778992 C884.740662,585.552856 876.999939,591.539734 868.937500,596.964600 C864.984436,599.624512 860.835693,602.020020 857.047974,604.894165 C847.953003,611.795593 838.907959,618.772339 830.050232,625.973938 C820.359619,633.852905 811.075989,642.240601 801.247009,649.936646 C797.896912,652.559814 793.838318,655.391541 788.969604,653.935425 C779.294128,651.041687 775.537964,640.639771 780.544556,631.876587 C783.021851,627.540527 785.102234,622.920593 786.852722,618.238708 C790.151672,609.414856 793.163086,600.479980 796.118835,591.533325 C797.087952,588.599854 797.205933,585.375916 798.249878,582.478210 C800.843811,575.278381 803.746887,568.190002 806.972046,560.403870 z"/></svg>
