<svg class="w-40 h-fit hidden sm:block pr-5 py-1 h-fit" version="1.1" id="Layer_1" xmlns="http://www.w3.org/2000/svg" x="0px" y="0px" viewBox="0 0 3500 912"><path fill="currentColor" opacity="1.000000" stroke="none" d=" M1306.836548,490.985901 C1306.808960,492.880524 1306.781250,494.775146 1306.077881,497.128784 C1305.261597,502.347809 1304.946167,507.110748 1305.025391,511.867157 C1305.120361,517.574219 1305.551758,523.275696 1305.837402,528.979553 C1305.224854,534.825500 1304.432251,540.659607 1304.044434,546.520386 C1303.530640,554.285217 1303.357910,562.072083 1302.992310,569.847290 C1302.697021,576.127930 1302.333008,582.405396 1302.000000,588.684265 C1301.667358,594.960938 1301.219360,601.234192 1301.036133,607.515198 C1300.860229,613.541077 1301.911011,619.773010 1300.707764,625.557739 C1299.027100,633.638306 1298.020142,641.493958 1298.615234,649.787476 C1298.940918,654.327454 1296.563110,658.995667 1296.124023,663.673584 C1295.624390,668.997925 1296.163696,674.412842 1295.817017,679.760254 C1295.439453,685.585510 1294.709473,691.399658 1293.869995,697.180359 C1292.661377,705.501831 1291.255981,713.795532 1289.860352,722.088623 C1287.878418,733.866760 1286.103027,745.688843 1283.744141,757.392273 C1280.160034,775.174744 1274.541016,792.358459 1265.263184,808.010620 C1259.944580,816.983459 1253.641479,825.411682 1247.328613,833.741760 C1243.466553,838.837830 1239.035400,843.592957 1234.357788,847.963806 C1219.123535,862.198792 1201.927490,873.360718 1182.401611,880.997742 C1166.050903,887.392944 1149.042114,890.606750 1131.773315,892.860657 C1120.986938,894.268433 1110.199707,895.705688 1099.380859,896.820679 C1084.369507,898.367737 1069.338623,899.752258 1054.296875,900.969116 C1039.857300,902.137207 1025.398315,903.083557 1010.938538,903.976807 C998.257263,904.760132 985.565735,905.391418 972.873901,905.986633 C957.356567,906.714294 941.835388,907.364685 926.313538,907.989624 C916.557190,908.382446 906.794556,908.620422 897.039246,909.033997 C894.605896,909.137146 892.190002,909.650757 889.015503,909.662720 C881.207581,909.232849 874.150024,909.030762 867.093140,909.053406 C865.092529,909.059814 863.094116,909.721802 861.094666,910.083130 C859.319763,910.373047 857.544922,910.663025 855.035706,910.654785 C843.930298,910.247070 833.559265,910.117310 823.187927,910.073486 C822.500427,910.070618 821.810242,910.721680 821.121277,911.068481 C820.893066,911.531982 820.664856,911.995422 820.718384,912.729492 C818.958313,913.000000 816.916687,913.000000 814.455200,912.585327 C813.161987,911.808411 812.290527,911.136108 811.414673,911.130310 C798.192383,911.042114 784.969299,911.001953 771.747559,911.105652 C770.826782,911.112854 769.915649,912.340149 769.000000,913.000000 C766.299988,913.000000 763.599976,913.000000 760.142212,912.723083 C758.403809,912.325500 757.423462,912.100952 756.442688,912.099365 C731.514832,912.058716 706.586914,912.027710 681.659119,912.062012 C680.439026,912.063660 679.219666,912.673401 678.000000,913.000000 C662.312439,913.000000 646.624878,913.000000 630.187012,912.689209 C628.789246,912.260925 628.141968,912.040894 627.494507,912.040588 C602.899170,912.029175 578.303833,912.024170 553.708679,912.084778 C552.471680,912.087830 551.236206,912.681396 550.000000,913.000000 C546.307068,913.000000 542.614197,913.000000 538.422974,912.587036 C537.253723,911.796387 536.584045,911.091980 535.911743,911.089539 C522.529053,911.040649 509.145721,911.035156 495.764038,911.170959 C494.836609,911.180298 493.921051,912.362976 493.000000,913.000000 C490.958344,913.000000 488.916656,913.000000 486.718140,912.735535 C486.344177,912.009583 486.127045,911.548096 485.670349,910.747437 C479.030548,910.267151 472.629059,909.978394 466.230530,910.033875 C461.523987,910.074646 456.821381,910.565918 451.704376,910.915649 C449.497864,910.678772 447.704010,910.382629 445.671021,909.746826 C436.938354,909.545654 428.444763,909.684143 419.515076,909.877441 C416.155243,909.621521 413.238251,909.146423 410.306763,909.027100 C392.620056,908.306641 374.927673,907.724854 357.241943,906.983032 C343.547394,906.408630 329.857849,905.705566 316.169708,904.989929 C304.474823,904.378479 292.785339,903.664917 281.093109,903.002136 C269.235504,902.329956 257.375885,901.691284 245.520432,900.982910 C241.086685,900.718018 236.645950,900.436951 232.236481,899.922607 C218.302795,898.297363 204.372528,896.634827 190.459808,894.840271 C178.570557,893.306641 166.567551,892.233459 154.866577,889.763977 C138.831467,886.379822 123.408813,881.082703 108.750999,873.333740 C89.496964,863.155029 72.797073,849.942383 59.034473,833.272766 C50.142883,822.503113 42.995560,810.487366 36.938232,797.732544 C26.270521,775.269775 22.416880,751.139099 18.188110,727.071289 C16.392296,716.850586 15.395775,706.488220 14.079340,696.184692 C12.697104,685.366150 11.179058,674.560181 10.070838,663.712891 C9.117817,654.384827 8.657115,645.006531 7.981055,635.650208 C6.653117,617.272217 5.200334,598.902039 4.050593,580.512878 C3.431139,570.605286 3.383102,560.662720 2.915046,550.743652 C2.870567,549.801086 1.665992,548.913269 1.000000,548.000000 C1.000000,546.933289 1.000000,545.866638 1.415977,544.418701 C2.172618,543.500488 2.802622,542.967529 2.810260,542.425720 C2.914557,535.027771 2.989772,527.627869 2.885492,520.231018 C2.874884,519.478638 1.657429,518.743225 1.000008,518.000000 C1.000000,516.285645 1.000000,514.571289 1.282177,512.123779 C1.687025,497.814575 1.820832,484.238556 1.892320,470.662201 C1.895229,470.109711 1.310789,469.554138 1.000000,469.000000 C1.000000,461.312408 1.000000,453.624847 1.311209,445.187256 C1.708522,430.864502 1.805479,417.291840 1.843002,403.718994 C1.844584,403.146759 1.293576,402.573029 1.000000,402.000000 C1.000000,400.611115 1.000000,399.222198 1.412058,397.373718 C2.185471,396.410706 2.856103,395.910706 2.861722,395.403351 C2.943757,387.996674 2.992011,380.588043 2.865904,373.183014 C2.853335,372.444946 1.650450,371.727173 1.000004,371.000000 C1.000000,369.611115 1.000000,368.222198 1.417217,366.609131 C2.222218,365.372559 2.913836,364.371246 2.951172,363.346100 C3.361063,352.091858 3.617560,340.832001 4.023851,329.577606 C4.268021,322.814026 4.552326,316.045502 5.081911,309.299896 C6.302481,293.752838 7.685101,278.218536 8.999285,262.678802 C9.691700,254.491257 10.170346,246.278946 11.121748,238.121689 C12.249249,228.454544 13.831349,218.841263 15.123891,209.192230 C16.222195,200.993210 16.834351,192.712585 18.301659,184.583588 C20.244917,173.817780 23.107138,163.217667 25.044024,152.450928 C28.336882,134.146606 35.130318,117.088692 44.556377,101.328239 C54.921814,83.997139 67.724571,68.341560 84.298080,56.398773 C93.273972,49.930798 102.424316,43.392811 112.322739,38.590530 C127.072594,31.434561 142.560776,25.972860 159.103714,23.969862 C175.172546,22.024265 191.152176,19.351376 207.199005,17.207731 C211.129089,16.682724 215.210678,17.307819 219.146759,16.807442 C223.701584,16.228409 228.134979,14.516467 232.689270,14.154949 C238.783401,13.671197 244.943024,14.012836 251.074524,13.998096 C251.574005,13.996897 252.083115,14.040772 252.571472,13.962346 C258.569916,12.999002 264.534546,11.569967 270.569427,11.154455 C277.827667,10.654713 285.147949,11.135098 292.435822,10.960080 C297.986816,10.826773 303.527710,10.306367 309.075714,10.006670 C315.783478,9.644325 322.494110,9.336403 329.203217,8.998861 C335.743439,8.669820 342.282074,8.306960 348.823547,8.006533 C356.701294,7.644732 364.581146,7.327641 372.460480,7.001305 C380.672394,6.661195 388.891632,6.448862 397.095032,5.966012 C404.722046,5.517086 412.332428,4.785416 420.284424,4.427584 C426.382111,4.787051 432.147095,5.024214 437.908112,4.950872 C440.579041,4.916869 443.242249,4.278373 446.130768,3.572421 C448.260254,3.204523 450.167938,3.178126 452.395813,3.397382 C462.762268,3.753283 472.808441,3.884677 482.854980,3.927161 C483.539551,3.930055 484.226959,3.265650 485.058289,2.559206 C485.135681,1.804550 485.067841,1.402274 485.000000,0.999999 C487.370575,1.000000 489.741119,1.000000 492.537048,1.414752 C493.836029,2.191667 494.707520,2.863694 495.583496,2.869531 C508.805908,2.957649 522.029175,2.997770 535.251038,2.894051 C536.172241,2.886825 537.083923,1.659793 538.000000,1.000000 C540.700012,1.000000 543.400024,1.000000 546.857056,1.277825 C548.594666,1.677271 549.575012,1.903651 550.555725,1.905204 C575.484314,1.944677 600.412842,1.974464 625.341370,1.938853 C626.561401,1.937110 627.780457,1.326890 629.000000,1.000005 C645.020874,1.000000 661.041809,1.000000 677.813110,1.310723 C679.211060,1.738929 679.858643,1.958754 680.506287,1.959114 C704.776367,1.972640 729.046448,1.979938 753.316345,1.921054 C754.544983,1.918073 755.772156,1.320649 757.000000,1.000000 C761.024536,1.000000 765.049072,1.000000 769.574524,1.412996 C770.746277,2.203671 771.415833,2.908293 772.088074,2.910751 C785.470703,2.959694 798.854065,2.965334 812.235718,2.829675 C813.163269,2.820272 814.078857,1.637252 815.000000,1.000003 C817.041687,1.000000 819.083313,1.000000 821.562500,1.000003 C821.932129,1.402058 821.864197,1.804110 822.180664,2.897683 C828.634583,3.731641 834.705872,4.031581 840.773315,3.967674 C845.808350,3.914639 850.838928,3.433169 855.871460,3.141496 C857.473755,3.178318 859.076050,3.215140 861.133911,3.925305 C870.703552,4.450129 879.817688,4.301609 888.931763,4.153088 C895.947388,4.768656 902.953918,5.535346 909.981079,5.960509 C918.259888,6.461402 926.557251,6.650882 934.845337,7.004473 C942.133545,7.315408 949.502808,8.491629 956.684692,7.772447 C964.172180,7.022664 971.266541,8.966325 978.574707,9.053174 C984.521667,9.123848 990.510498,10.282681 996.393738,9.829529 C1002.491943,9.359812 1008.311340,10.638212 1014.261658,10.994739 C1020.204712,11.350834 1026.146606,11.793113 1032.095703,11.963463 C1038.130615,12.136269 1044.517944,10.816406 1050.105713,12.411133 C1054.690552,13.719635 1058.659790,13.263803 1063.047485,13.258945 C1067.842285,13.253635 1072.635010,15.006557 1077.438843,15.940557 C1078.243774,16.097042 1079.103516,15.945735 1079.932861,16.005863 C1089.583496,16.705563 1099.262573,17.147570 1108.875610,18.195229 C1121.451904,19.565836 1134.052490,20.978245 1146.505615,23.156370 C1170.819580,27.409025 1193.925171,35.210121 1214.076782,49.895405 C1222.145874,55.775585 1229.296509,62.909451 1236.921631,69.406441 C1253.513916,83.543716 1264.630493,101.649437 1272.764648,121.411499 C1277.671509,133.332748 1280.677246,146.107437 1283.755249,158.689896 C1286.664429,170.582230 1288.791992,182.684540 1290.806152,194.770676 C1292.220825,203.259949 1293.002686,211.864319 1293.815308,220.441147 C1294.420532,226.827255 1294.364746,233.281052 1295.092163,239.648849 C1295.606934,244.155869 1297.157715,248.538025 1297.806152,253.039291 C1298.095215,255.046463 1296.428101,257.615479 1297.173584,259.221680 C1299.032837,263.227112 1296.989380,267.453766 1298.216919,271.035828 C1299.788086,275.620239 1297.907715,280.230133 1299.211670,284.362579 C1300.605713,288.779968 1299.047729,293.146851 1300.139404,297.230682 C1301.695190,303.049622 1299.605469,309.158356 1301.305054,314.496796 C1303.014404,319.866333 1300.748657,324.943115 1302.076050,329.910492 C1304.063721,337.348969 1301.821167,344.959656 1303.185547,352.239746 C1304.625244,359.922028 1303.302979,367.522919 1304.057373,375.108002 C1304.360840,378.160492 1305.301392,381.149597 1305.649658,384.924316 C1305.239014,395.394928 1305.109009,405.108673 1305.068604,414.822784 C1305.065796,415.508728 1305.722778,416.197418 1306.072876,416.884827 C1306.369141,418.350525 1306.665283,419.816193 1306.658936,421.998352 C1306.271606,444.868958 1306.181030,467.023071 1306.132935,489.177307 C1306.131592,489.779663 1306.591675,490.382996 1306.836548,490.985901 M903.504517,445.997009 C909.854065,438.661285 916.840881,431.772308 922.381409,423.869385 C928.437622,415.231079 931.936279,405.109619 931.892578,394.431580 C931.866882,388.159698 929.599365,381.695312 923.710388,378.485901 C912.356567,372.298187 901.889221,377.250671 892.098877,382.933838 C884.267944,387.479584 876.983154,392.972504 869.499451,398.108337 C861.281189,403.748230 852.951721,409.244659 844.963013,415.195923 C834.941833,422.661407 825.105652,430.387939 815.410645,438.273529 C810.211487,442.502350 805.422241,447.244537 800.548462,451.860992 C797.086731,455.139923 788.801453,457.423065 785.614685,454.896179 C782.589905,452.497711 779.914734,449.184265 778.200806,445.721283 C775.835449,440.942200 778.042297,436.566772 780.342834,431.877472 C784.527771,423.346924 787.651428,414.277008 790.934998,405.328339 C794.122437,396.641541 796.912354,387.809662 799.954834,379.068665 C803.098145,370.037659 806.305237,361.028412 809.539307,352.029388 C813.472534,341.085083 818.498413,330.407471 821.170288,319.167267 C824.609070,304.700775 822.611755,291.203735 811.465942,279.299438 C803.376038,270.659058 789.745667,272.738770 781.313782,277.394562 C777.287109,279.617920 773.860596,283.382477 770.942932,287.067139 C764.524719,295.172455 758.186890,303.402710 752.593018,312.082581 C746.762878,321.129089 741.718445,330.694672 736.564636,340.160858 C731.321289,349.791748 726.379639,359.586609 721.271912,369.291779 C719.327026,372.987274 717.065308,376.531616 715.336121,380.321960 C711.344055,389.072601 708.025024,398.155945 703.627808,406.689453 C698.177612,417.266388 691.810913,427.367371 686.064514,437.797577 C684.349487,440.910309 682.537842,443.148621 678.889343,441.274323 C675.235901,439.397522 675.278687,436.089294 676.743286,432.818817 C680.781860,423.800751 685.144653,414.923065 688.992737,405.826385 C691.093872,400.859375 692.442322,395.570648 694.073975,390.409271 C695.888672,384.668732 697.523193,378.868561 699.458435,373.169830 C700.760132,369.336548 702.453369,365.636597 703.961426,361.872986 C707.646423,352.676117 711.172424,343.411713 715.048218,334.296021 C719.352600,324.172363 724.058838,314.220123 728.415527,304.117950 C730.166321,300.058258 730.731140,295.320343 733.107178,291.733246 C737.477417,285.135315 738.555115,277.526550 737.659912,270.637817 C736.203125,259.428314 734.682739,247.195969 722.601929,241.164291 C718.179626,238.956345 713.036682,235.827698 708.652405,236.401886 C699.625916,237.584030 689.712280,237.986450 682.844116,245.592728 C677.087891,251.967514 671.322937,258.373230 666.096497,265.175934 C661.529297,271.120605 657.688416,277.625397 653.560425,283.904877 C647.915894,292.491516 642.134216,300.994751 636.737610,309.735168 C633.252930,315.378998 630.324219,321.368469 627.196472,327.229828 C621.851624,337.246277 616.516602,347.268158 611.236267,357.318665 C608.456970,362.608887 605.962402,368.054230 603.046509,373.265717 C600.073669,378.579071 596.691162,383.661530 593.582764,388.901276 C590.857361,393.495422 588.386719,398.243683 585.580383,402.786041 C581.939941,408.678436 577.970886,414.368347 574.354492,420.274689 C572.339172,423.566010 570.905151,427.211334 568.919434,430.523346 C567.554382,432.800018 566.044189,436.076416 563.982483,436.636292 C558.681580,438.075745 553.044250,438.703522 547.528687,438.783722 C543.430908,438.843292 537.218201,430.537354 537.101318,426.869263 C536.805359,417.583557 535.980591,408.315186 535.653320,399.029785 C535.468933,393.795349 532.795471,388.940460 534.205017,383.408112 C536.351685,374.983002 538.192139,366.442383 539.498962,357.849854 C541.334595,345.781189 542.636780,333.628540 544.025879,321.495636 C545.145630,311.715210 546.192688,301.922272 547.013855,292.113281 C547.609070,285.003326 547.743958,277.855804 548.152100,270.728943 C548.690918,261.321045 550.073853,251.880829 549.639160,242.522079 C549.256165,234.278046 547.695557,226.123978 542.622314,218.735764 C535.516846,208.388123 527.724243,201.160995 513.916870,201.651566 C503.350464,202.027008 495.615448,207.597626 489.184113,213.985428 C483.906128,219.227722 480.894714,227.272949 478.324554,234.584045 C475.351227,243.042023 473.955322,252.055130 471.884277,260.829529 C469.747528,269.882141 467.259613,278.870972 465.582245,288.008301 C463.379059,300.010437 461.766205,312.122925 460.004608,324.203278 C459.201569,329.709900 458.725220,335.263519 457.969666,340.777863 C456.339325,352.677368 454.806519,364.594818 452.885132,376.448395 C451.395355,385.639160 449.211792,394.715851 447.633972,403.894348 C445.544373,416.050079 443.798248,428.264496 441.804810,440.437347 C439.925262,451.914795 437.889648,463.366577 435.972839,474.838043 C434.326324,484.691925 432.674835,494.546082 431.163330,504.421204 C429.366882,516.157715 426.830078,527.873657 426.256714,539.678284 C425.693970,551.263672 426.836487,562.982300 427.915070,574.578796 C428.596741,581.907837 430.603149,589.107727 431.889435,596.387817 C433.629486,606.235840 438.589508,614.701965 444.282196,622.493774 C450.239258,630.647461 460.226532,635.353394 464.625000,645.066040 C464.749390,645.340759 465.091431,645.529663 465.356171,645.726074 C470.279816,649.377747 475.480560,652.715698 480.052490,656.763977 C484.165741,660.406128 487.506012,664.907410 491.339996,668.882385 C495.824646,673.531921 500.093719,678.510254 505.150909,682.455627 C511.266815,687.226868 518.191345,690.946716 524.622681,695.331665 C537.812561,704.324646 551.764465,711.526062 567.856689,713.405701 C573.811462,714.101135 579.880249,714.242981 585.875488,714.029968 C590.397583,713.869446 594.988037,713.124634 599.362915,711.950073 C605.087891,710.412903 610.989746,708.869507 616.164307,706.108337 C623.319275,702.290527 629.769104,697.174011 636.719666,692.940002 C639.865845,691.023560 643.747925,690.297485 646.848083,688.326599 C655.078857,683.094055 663.259460,677.740112 671.097961,671.944763 C679.870972,665.458496 688.351685,658.561462 696.754089,651.595276 C701.599548,647.577942 706.120972,643.155151 710.639709,638.762024 C716.104736,633.448914 721.669983,628.201782 726.711914,622.501587 C731.218140,617.406921 734.894104,611.587219 739.252319,606.350159 C747.292725,596.688232 755.569763,587.223206 763.738098,577.667542 C769.181824,571.299194 774.517395,564.835815 780.065063,558.559631 C786.840149,550.894958 793.655212,543.256958 800.698242,535.840332 C806.996826,529.207642 813.451477,522.699524 820.169983,516.496887 C825.392151,511.675781 831.139893,507.425598 836.630615,502.893372 C847.956482,493.544617 859.318848,484.238861 870.562744,474.792267 C876.622375,469.701233 882.454834,464.340271 888.414734,459.129730 C893.248352,454.903992 898.119141,450.720856 903.504517,445.997009 z"/><path class=" hidden sm:block" fill="#7E3AB6" opacity="1.000000" stroke="none" d=" M814.531372,1.000003 C814.078857,1.637252 813.163269,2.820272 812.235718,2.829675 C798.854065,2.965334 785.470703,2.959694 772.088074,2.910751 C771.415833,2.908293 770.746277,2.203671 770.037720,1.412996 C784.687561,1.000000 799.375122,1.000000 814.531372,1.000003 z"/><path class=" hidden sm:block" fill="#7E3BB7" opacity="1.000000" stroke="none" d=" M769.468628,913.000000 C769.915649,912.340149 770.826782,911.112854 771.747559,911.105652 C784.969299,911.001953 798.192383,911.042114 811.414673,911.130310 C812.290527,911.136108 813.161987,911.808411 814.017700,912.585327 C799.312439,913.000000 784.624878,913.000000 769.468628,913.000000 z"/><path class=" hidden sm:block" fill="#7E3AB6" opacity="1.000000" stroke="none" d=" M493.468658,913.000000 C493.921051,912.362976 494.836609,911.180298 495.764038,911.170959 C509.145721,911.035156 522.529053,911.040649 535.911743,911.089539 C536.584045,911.091980 537.253723,911.796387 537.962280,912.587036 C523.312439,913.000000 508.624878,913.000000 493.468658,913.000000 z"/><path class=" hidden sm:block" fill="#7E3AB7" opacity="1.000000" stroke="none" d=" M537.531372,1.000000 C537.083923,1.659793 536.172241,2.886825 535.251038,2.894051 C522.029175,2.997770 508.805908,2.957649 495.583496,2.869531 C494.707520,2.863694 493.836029,2.191667 492.981201,1.414752 C507.687561,1.000000 522.375122,1.000000 537.531372,1.000000 z"/><path class=" hidden sm:block" fill="#7E3AB6" opacity="1.000000" stroke="none" d=" M628.531372,1.000005 C627.780457,1.326890 626.561401,1.937110 625.341370,1.938853 C600.412842,1.974464 575.484314,1.944677 550.555725,1.905204 C549.575012,1.903651 548.594666,1.677271 547.307068,1.277825 C574.020874,1.000000 601.041809,1.000000 628.531372,1.000005 z"/><path class=" hidden sm:block" fill="#7F3AB6" opacity="1.000000" stroke="none" d=" M678.468628,913.000000 C679.219666,912.673401 680.439026,912.063660 681.659119,912.062012 C706.586914,912.027710 731.514832,912.058716 756.442688,912.099365 C757.423462,912.100952 758.403809,912.325500 759.692200,912.723083 C732.979126,913.000000 705.958191,913.000000 678.468628,913.000000 z"/><path class=" hidden sm:block" fill="#7E3AB6" opacity="1.000000" stroke="none" d=" M550.468628,913.000000 C551.236206,912.681396 552.471680,912.087830 553.708679,912.084778 C578.303833,912.024170 602.899170,912.029175 627.494507,912.040588 C628.141968,912.040894 628.789246,912.260925 629.718323,912.689209 C603.645752,913.000000 577.291565,913.000000 550.468628,913.000000 z"/><path class=" hidden sm:block" fill="#7F3AB6" opacity="1.000000" stroke="none" d=" M756.531372,1.000000 C755.772156,1.320649 754.544983,1.918073 753.316345,1.921054 C729.046448,1.979938 704.776367,1.972640 680.506287,1.959114 C679.858643,1.958754 679.211060,1.738929 678.281738,1.310723 C704.020874,1.000000 730.041809,1.000000 756.531372,1.000000 z"/><path class=" hidden sm:block" fill="#7E3AB6" opacity="1.000000" stroke="none" d=" M1.000008,518.468628 C1.657429,518.743225 2.874884,519.478638 2.885492,520.231018 C2.989772,527.627869 2.914557,535.027771 2.810260,542.425720 C2.802622,542.967529 2.172618,543.500488 1.415977,544.018799 C1.000000,535.645752 1.000000,527.291504 1.000008,518.468628 z"/><path class=" hidden sm:block" fill="#7E3BB7" opacity="1.000000" stroke="none" d=" M1.000004,371.468658 C1.650450,371.727173 2.853335,372.444946 2.865904,373.183014 C2.992011,380.588043 2.943757,387.996674 2.861722,395.403351 C2.856103,395.910706 2.185471,396.410706 1.412058,396.957092 C1.000000,388.645782 1.000000,380.291534 1.000004,371.468658 z"/><path class=" hidden sm:block" fill="#7E3BB7" opacity="1.000000" stroke="none" d=" M1.000000,469.468658 C1.310789,469.554138 1.895229,470.109711 1.892320,470.662201 C1.820832,484.238556 1.687025,497.814575 1.282177,511.695312 C1.000000,497.979095 1.000000,483.958221 1.000000,469.468658 z"/><path class=" hidden sm:block" fill="#7E3BB7" opacity="1.000000" stroke="none" d=" M1.000000,402.468658 C1.293576,402.573029 1.844584,403.146759 1.843002,403.718994 C1.805479,417.291840 1.708522,430.864502 1.311209,444.718628 C1.000000,430.979095 1.000000,416.958221 1.000000,402.468658 z"/><path class=" hidden sm:block" fill="#FFFFFF" opacity="1.000000" stroke="none" d=" M2920.000000,298.000000 C2946.066650,297.481445 2970.486328,302.498047 2993.379639,313.927399 C3010.132812,322.291534 3024.543213,333.676605 3036.789795,348.060394 C3046.743408,359.750732 3055.059326,372.400696 3061.471191,386.178986 C3069.274658,402.948120 3075.422119,420.429596 3077.912354,438.868622 C3080.007812,454.381622 3081.543457,469.980103 3082.918945,485.576721 C3083.702148,494.454437 3084.277832,503.430939 3083.889893,512.316833 C3082.512939,543.855347 3079.001709,575.145081 3067.868896,604.949768 C3060.741455,624.030579 3051.082764,641.772583 3037.992676,657.688782 C3017.018799,683.190552 2990.428955,699.440125 2958.741211,707.609741 C2938.884033,712.729248 2918.501709,714.353943 2898.162842,712.804932 C2873.248047,710.907410 2850.718750,701.635193 2830.486572,686.950745 C2825.394043,683.254517 2820.465088,679.332947 2815.107422,675.245178 C2815.107422,685.456177 2815.107422,695.487427 2815.107422,705.755371 C2781.962402,705.755371 2749.228271,705.755371 2716.246826,705.755371 C2716.246826,522.986694 2716.246826,340.273285 2716.246826,157.279907 C2751.632568,157.279907 2787.032959,157.279907 2822.789551,157.279907 C2822.789551,215.955139 2822.789551,274.684174 2822.789551,334.552032 C2850.747559,309.321045 2882.690918,297.040009 2920.000000,298.000000 M2973.999756,518.292114 C2973.333496,504.460999 2972.686523,490.628906 2971.995850,476.799011 C2971.288330,462.642242 2968.242432,448.908569 2962.849609,435.889343 C2957.479980,422.926331 2949.415283,411.914673 2936.630371,404.921844 C2918.875732,395.211029 2899.799316,394.524200 2880.862061,398.343201 C2860.872070,402.374573 2846.273193,414.547577 2836.901123,433.078094 C2826.992676,452.669708 2824.164307,473.791351 2823.243652,495.130371 C2822.627930,509.404846 2824.115967,523.793640 2825.056885,538.105347 C2826.071045,553.527710 2829.698975,568.390747 2837.060059,582.060791 C2847.895996,602.183472 2865.485596,612.245728 2887.810059,613.832031 C2897.288330,614.505554 2906.986328,614.029785 2916.424805,612.824585 C2928.403320,611.295105 2939.284180,606.806702 2948.410645,598.227417 C2962.989014,584.522705 2967.976562,566.695068 2970.914307,547.974426 C2972.405273,538.471802 2973.000000,528.828552 2973.999756,518.292114 z"/><path class=" hidden sm:block" fill="#FFFFFF" opacity="1.000000" stroke="none" d=" M1842.000000,621.003784 C1842.000000,649.478882 1842.000000,677.454468 1842.000000,705.714722 C1805.041626,705.714722 1768.304443,705.714722 1731.167725,705.714722 C1731.167725,672.705261 1731.167725,639.632812 1731.167725,606.166138 C1655.701416,606.166138 1580.632080,606.166138 1505.007202,606.166138 C1505.007202,592.012512 1504.296387,578.191345 1505.374634,564.511169 C1505.777222,559.403748 1510.247314,554.563477 1513.048096,549.708435 C1521.322510,535.364380 1529.680298,521.068359 1538.022583,506.763611 C1551.308228,483.982727 1564.677490,461.250336 1577.881592,438.422302 C1590.997437,415.746429 1603.892334,392.942810 1616.995483,370.259369 C1629.860596,347.987885 1642.912598,325.824310 1655.795898,303.563202 C1667.550781,283.251892 1679.180908,262.868561 1690.881958,242.526062 C1696.892822,232.076187 1702.832275,221.581650 1709.099854,211.287338 C1709.903320,209.967621 1712.491455,209.100220 1714.256714,209.093872 C1749.254028,208.967926 1784.251831,209.000000 1819.249634,209.000000 C1826.704224,209.000000 1834.158936,209.000000 1842.000977,209.000000 C1842.000977,308.800262 1842.000977,408.201630 1842.000977,507.930420 C1868.166748,507.930420 1893.941406,507.930420 1920.304810,507.930420 C1913.952759,526.567505 1907.750610,544.728088 1901.574463,562.897583 C1897.084717,576.105408 1892.457275,589.270996 1888.292847,602.581055 C1887.371826,605.524780 1886.101196,606.047791 1883.504272,606.033936 C1869.860840,605.961304 1856.216919,606.000000 1842.000000,606.000000 C1842.000000,610.969299 1842.000000,615.736755 1842.000000,621.003784 M1675.031128,458.672119 C1666.008301,475.620453 1656.985352,492.568817 1647.875244,509.681122 C1677.135498,509.681122 1705.991089,509.681122 1734.726440,509.681122 C1734.726440,456.402893 1734.726440,403.443909 1734.726440,349.028320 C1732.046631,354.230835 1730.085815,358.206421 1727.978027,362.102570 C1713.306641,389.221588 1698.625610,416.335266 1683.894165,443.421600 C1681.207153,448.361969 1678.274414,453.168701 1675.031128,458.672119 z"/><path class=" hidden sm:block" fill="#FFFFFF" opacity="1.000000" stroke="none" d=" M3414.677246,693.739441 C3398.679932,701.630737 3382.143799,706.882080 3365.024902,709.853088 C3344.297607,713.450195 3323.240967,714.059814 3302.312988,712.800293 C3282.453369,711.605042 3262.883301,707.780334 3244.182373,700.592407 C3227.215820,694.071045 3211.551514,685.347656 3197.691162,673.361694 C3184.453369,661.914917 3172.524658,649.400085 3163.188477,634.562988 C3152.072510,616.896667 3143.700928,597.969177 3139.131836,577.598633 C3136.444092,565.616638 3134.520264,553.409790 3133.138672,541.203796 C3131.826172,529.606812 3130.859375,517.857849 3131.170410,506.213928 C3131.788086,483.073578 3133.885498,460.094391 3139.610352,437.454285 C3143.452148,422.262543 3148.411133,407.548157 3155.294189,393.635040 C3162.752686,378.558411 3172.121826,364.658539 3183.343262,351.850281 C3196.441895,336.899139 3211.665527,324.928925 3228.992188,315.713440 C3242.624268,308.462860 3257.361816,303.948425 3272.599365,300.887360 C3289.271484,297.538116 3306.082275,297.379669 3322.843750,298.147766 C3352.932373,299.526581 3381.137207,307.846649 3405.799561,325.519989 C3424.473633,338.902222 3438.729736,356.407928 3449.460938,376.841858 C3459.509521,395.975372 3466.145508,416.152313 3468.930420,437.521057 C3470.682129,450.961700 3471.737061,464.495789 3472.968262,478.000397 C3473.491455,483.735413 3474.263672,489.541962 3473.883789,495.246796 C3472.905029,509.939392 3471.333984,524.592224 3470.027832,539.263550 C3469.724121,542.676025 3469.532227,546.098511 3469.257568,549.954285 C3393.333252,549.954285 3317.760010,549.954285 3241.977539,549.954285 C3245.037109,563.023010 3249.539062,574.860352 3257.003662,585.609619 C3267.516357,600.747803 3282.245850,609.365906 3299.576904,613.914246 C3311.893311,617.146606 3324.614990,617.790955 3337.257568,616.903259 C3360.197998,615.292480 3380.758789,606.998352 3399.181152,593.315491 C3405.022461,588.976868 3410.834229,584.598206 3416.873779,580.078003 C3434.934814,604.258179 3453.056396,628.519531 3471.376953,653.046936 C3454.126953,668.983093 3435.916504,683.120544 3414.677246,693.739441 M3252.963135,429.402344 C3246.800293,440.397614 3242.986816,452.170807 3240.808350,464.758179 C3283.829590,464.758179 3326.365723,464.758179 3369.235596,464.758179 C3367.790039,456.184967 3366.840576,447.795563 3364.898193,439.642883 C3361.487305,425.328217 3354.183105,412.890411 3342.302002,404.263000 C3326.154785,392.537506 3307.649902,391.217560 3288.977295,396.683533 C3272.251465,401.579620 3260.907227,413.360138 3252.963135,429.402344 z"/><path class=" hidden sm:block" fill="#FFFFFF" opacity="1.000000" stroke="none" d=" M2306.000000,408.000000 C2306.000000,373.525238 2306.000000,339.550507 2306.000000,305.288086 C2341.951660,305.288086 2377.687988,305.288086 2414.000000,305.288086 C2414.000000,306.974365 2414.000000,308.739227 2414.000000,310.504120 C2414.000000,387.996490 2413.797363,465.489899 2414.178711,542.980408 C2414.250977,557.659119 2416.169678,572.405884 2422.541992,586.093323 C2429.191895,600.377197 2440.514404,608.620911 2455.649902,611.990234 C2472.153809,615.664307 2488.399658,614.754089 2503.750732,607.539978 C2513.910400,602.765503 2520.886230,594.291443 2524.903320,583.860962 C2529.966797,570.714600 2531.998291,556.922729 2531.998779,542.840881 C2532.001221,465.515137 2532.000000,388.189392 2532.000000,310.863647 C2532.000000,309.065399 2532.000000,307.267120 2532.000000,305.236572 C2568.055908,305.236572 2603.791992,305.236572 2640.000000,305.236572 C2640.000000,306.759766 2640.000000,308.204926 2640.000000,309.650055 C2640.000000,391.808655 2640.245117,473.968597 2639.793945,556.124695 C2639.703369,572.613525 2636.654297,588.996277 2632.115723,605.036438 C2627.079834,622.832581 2619.885254,639.456909 2609.117676,654.579834 C2597.963379,670.245300 2583.984375,682.557434 2567.294189,692.009705 C2551.312744,701.060608 2534.033203,706.468689 2516.180420,709.839111 C2495.981201,713.652588 2475.407471,713.940735 2454.979492,712.797424 C2437.557617,711.822327 2420.320557,708.730713 2403.667236,703.029419 C2379.900879,694.893066 2359.408691,681.728943 2343.215332,662.539124 C2329.012451,645.708496 2319.508301,626.171997 2314.141357,604.846313 C2311.427002,594.061096 2309.536621,583.012085 2308.088867,571.975525 C2303.970703,540.577698 2306.566406,508.990479 2306.070801,477.489532 C2305.708984,454.498322 2306.000000,431.496887 2306.000000,408.000000 z"/><path class=" hidden sm:block" fill="#FFFFFF" opacity="1.000000" stroke="none" d=" M2172.000000,353.000000 C2172.000000,470.786957 2172.000000,588.073914 2172.000000,705.680420 C2134.783447,705.680420 2097.718262,705.680420 2060.291016,705.680420 C2060.291016,573.813904 2060.291016,441.768066 2060.291016,309.156738 C2018.750854,309.156738 1977.565918,309.156738 1936.198975,309.156738 C1936.198975,275.525909 1936.198975,242.460770 1936.198975,209.197830 C2060.465820,209.197830 2184.533936,209.197830 2309.343750,209.197830 C2307.240234,216.456604 2305.171875,223.450577 2303.186768,230.468033 C2296.111572,255.479019 2288.906006,280.455566 2282.182373,305.560974 C2281.202393,309.219452 2279.461182,309.001587 2276.971436,309.001312 C2255.310791,308.999023 2233.650391,309.000000 2211.989746,309.000000 C2198.849365,309.000000 2185.708984,309.000000 2172.000000,309.000000 C2172.000000,323.644409 2172.000000,338.072205 2172.000000,353.000000 z"/><path class=" hidden sm:block" fill="#7C3BB9" opacity="1.000000" stroke="none" d=" M1306.916992,490.524933 C1306.591675,490.382996 1306.131592,489.779663 1306.132935,489.177307 C1306.181030,467.023071 1306.271606,444.868958 1306.602295,422.395813 C1306.897827,444.739227 1306.947510,467.401581 1306.916992,490.524933 z"/><path class=" hidden sm:block" fill="#7E3BB7" opacity="1.000000" stroke="none" d=" M855.421387,3.067603 C850.838928,3.433169 845.808350,3.914639 840.773315,3.967674 C834.705872,4.031581 828.634583,3.731641 822.326172,3.249654 C833.048645,2.937972 844.009949,2.965841 855.421387,3.067603 z"/><path class=" hidden sm:block" fill="#7E3AB6" opacity="1.000000" stroke="none" d=" M821.579041,911.044312 C821.810242,910.721680 822.500427,910.070618 823.187927,910.073486 C833.559265,910.117310 843.930298,910.247070 854.627136,910.598633 C843.980835,910.900513 833.008850,910.960388 821.579041,911.044312 z"/><path class=" hidden sm:block" fill="#7D3BB8" opacity="1.000000" stroke="none" d=" M1306.045898,416.426575 C1305.722778,416.197418 1305.065796,415.508728 1305.068604,414.822784 C1305.109009,405.108673 1305.239014,395.394928 1305.592285,385.354095 C1305.897949,395.340851 1305.958374,405.654602 1306.045898,416.426575 z"/><path class=" hidden sm:block" fill="#7D3BB8" opacity="1.000000" stroke="none" d=" M1305.916016,528.518921 C1305.551758,523.275696 1305.120361,517.574219 1305.025391,511.867157 C1304.946167,507.110748 1305.261597,502.347809 1305.738770,497.350464 C1306.048340,507.428223 1306.021362,517.743286 1305.916016,528.518921 z"/><path class=" hidden sm:block" fill="#7E3AB6" opacity="1.000000" stroke="none" d=" M861.554565,910.052368 C863.094116,909.721802 865.092529,909.059814 867.093140,909.053406 C874.150024,909.030762 881.207581,909.232849 888.574341,909.602295 C879.927368,909.910339 870.970886,909.965881 861.554565,910.052368 z"/><path class=" hidden sm:block" fill="#7E3BB7" opacity="1.000000" stroke="none" d=" M888.475830,4.077024 C879.817688,4.301609 870.703552,4.450129 861.352417,4.262456 C870.083496,3.951162 879.051636,3.976061 888.475830,4.077024 z"/><path class=" hidden sm:block" fill="#7E3AB7" opacity="1.000000" stroke="none" d=" M485.670349,910.747498 C474.945618,911.059509 463.981293,911.032349 452.567017,910.930786 C456.821381,910.565918 461.523987,910.074646 466.230530,910.033875 C472.629059,909.978394 479.030548,910.267151 485.670349,910.747498 z"/><path class=" hidden sm:block" fill="#7E3AB6" opacity="1.000000" stroke="none" d=" M452.395813,3.397383 C462.714691,3.093678 473.353790,3.035625 484.452942,2.944580 C484.226959,3.265650 483.539551,3.930055 482.854980,3.927161 C472.808441,3.884677 462.762268,3.753283 452.395813,3.397383 z"/><path class=" hidden sm:block" fill="#7E3AB6" opacity="1.000000" stroke="none" d=" M445.671021,909.746826 C437.569214,910.051636 429.228271,910.016785 420.419250,909.902344 C428.444763,909.684143 436.938354,909.545654 445.671021,909.746826 z"/><path class=" hidden sm:block" fill="#7E3AB6" opacity="1.000000" stroke="none" d=" M420.284424,4.427584 C428.296600,4.111449 436.643036,4.044672 445.449219,3.945908 C443.242249,4.278373 440.579041,4.916869 437.908112,4.950872 C432.147095,5.024214 426.382111,4.787051 420.284424,4.427584 z"/></svg>
